<svg xmlns="http://www.w3.org/2000/svg" viewBox="0 0 408.78 408.79"><defs><style>.cls-1{fill:#fff;}.cls-2{fill:#fbbb00;}.cls-3{fill:#518ef8;}.cls-4{fill:#28b446;}.cls-5{fill:#f14336;}</style></defs><title>Asset 1</title><g id="Layer_2" data-name="Layer 2"><g id="Layer_1-2" data-name="Layer 1"><path class="cls-1" d="M266.07,408.79H353.7a55.08,55.08,0,0,0,55.08-55.08V55.08A55.09,55.09,0,0,0,353.7,0H55.09A55.09,55.09,0,0,0,0,55.08V353.7a55.08,55.08,0,0,0,55.08,55.08H202.36"/><path class="cls-1" d="M314.56,249.11"/><path class="cls-1" d="M329,194.12"/><path class="cls-2" d="M123.31,234.78l-10.14,37.85-37.05.78a145.88,145.88,0,0,1-1.07-136h0l33,6,14.45,32.79a86.92,86.92,0,0,0,.82,58.51Z"/><path class="cls-3" d="M347.47,177.19A145.57,145.57,0,0,1,295.56,318h0L254,315.83l-5.88-36.71a86.79,86.79,0,0,0,37.34-44.32H207.59V177.19H347.47Z"/><path class="cls-4" d="M295.55,318h0A145.67,145.67,0,0,1,76.12,273.41l47.19-38.63a86.61,86.61,0,0,0,124.81,44.34Z"/><path class="cls-5" d="M297.35,92.29l-47.18,38.62A86.6,86.6,0,0,0,122.5,176.26L75.06,137.42h0a145.66,145.66,0,0,1,222.3-45.13Z"/></g></g></svg>