<?xml version="1.0" encoding="utf-8"?>
<!-- Generator: Adobe Illustrator 21.0.0, SVG Export Plug-In . SVG Version: 6.00 Build 0)  -->
<svg version="1.1" id="Layer_1" xmlns="http://www.w3.org/2000/svg" xmlns:xlink="http://www.w3.org/1999/xlink" x="0px" y="0px"
	 viewBox="0 0 381 381" style="enable-background:new 0 0 381 381;" xml:space="preserve">
<style type="text/css">
	.st0{fill:#575E6E;}
</style>
<g>
	<g>
		<path class="st0" d="M329.4,200.2H180.9V51.7c0-6-4.8-10.8-10.8-10.8C76.3,40.9,0,117.2,0,211C0,304.7,76.3,381,170.1,381
			c93.8,0,170.1-76.3,170.1-170.1C340.2,205,335.3,200.2,329.4,200.2L329.4,200.2z M170.1,359.4c-81.8,0-148.5-66.6-148.5-148.5
			c0-78.2,60.8-142.6,137.7-148.1V211c0,6,4.8,10.8,10.8,10.8h148.1C312.6,298.6,248.3,359.4,170.1,359.4L170.1,359.4z M170.1,359.4
			"/>
		<path class="st0" d="M381,169.5c-0.2-41.3-15.3-81-42.6-112C306.1,21,259.7,0,210.9,0c-6,0-10.8,4.8-10.8,10.8v159.3
			c0,6,4.8,10.8,10.8,10.8h159.3c6,0,10.8-4.8,10.8-10.8V169.5z M221.7,159.4V22.1c38.6,2.8,74.7,20.6,100.5,49.8
			c21.6,24.4,34.4,55.1,36.8,87.4H221.7z M221.7,159.4"/>
	</g>
</g>
</svg>
