<?xml version="1.0" encoding="UTF-8"?>
<svg width="116px" height="90px" viewBox="0 0 116 90" version="1.1" xmlns="http://www.w3.org/2000/svg" xmlns:xlink="http://www.w3.org/1999/xlink">
    <!-- Generator: Sketch 55 (78076) - https://sketchapp.com -->
    <title>photo icon copy</title>
    <desc>Created with Sketch.</desc>
    <defs>
        <polygon id="path-1" points="0 0 116 0 116 90 0 90"></polygon>
    </defs>
    <g id="Page-1" stroke="none" stroke-width="1" fill="none" fill-rule="evenodd">
        <g id="photo-icon-copy">
            <g id="Group-3">
                <mask id="mask-2" fill="white">
                    <use xlink:href="#path-1"></use>
                </mask>
                <g id="Clip-2"></g>
                <path d="M100.33855,35.9915625 C98.1012,35.9915625 96.2771,34.228125 96.2771,32.0526562 C96.2771,29.8828125 98.1012,28.119375 100.33855,28.119375 C102.5817,28.119375 104.4,29.8828125 104.4,32.0526562 C104.4,34.228125 102.5817,35.9915625 100.33855,35.9915625 M58,78.75 C41.98185,78.75 29,66.1598438 29,50.625 C29,35.0957813 41.98185,22.5 58,22.5 C74.01235,22.5 87,35.0957813 87,50.625 C87,66.1598438 74.01235,78.75 58,78.75 M104.4,16.875 L90.4771,16.875 C88.5631,16.875 86.5012,15.4364063 85.9009,13.6729688 L82.2991,3.20203125 C81.693,1.43859375 79.6369,0 77.72145,0 L38.2771,0 C36.3631,0 34.3012,1.43859375 33.7009,3.20203125 L30.0991,13.6729688 C29.493,15.4364063 27.4369,16.875 25.5229,16.875 L11.6,16.875 C5.2229,16.875 0,21.9403125 0,28.125 L0,78.75 C0,84.9360938 5.2229,90 11.6,90 L104.4,90 C110.7771,90 116,84.9360938 116,78.75 L116,28.125 C116,21.9403125 110.7771,16.875 104.4,16.875 M58,33.75 C48.38795,33.75 40.6,41.3085938 40.6,50.625 C40.6,59.9470313 48.38795,67.5 58,67.5 C67.60625,67.5 75.4,59.9470313 75.4,50.625 C75.4,41.3085938 67.60625,33.75 58,33.75" id="Fill-1" fill="#FEFEFE" mask="url(#mask-2)"></path>
            </g>
        </g>
    </g>
</svg>