<svg xmlns="http://www.w3.org/2000/svg" viewBox="0 0 512 512"><defs><style>.cls-1{fill:#585e6f;}</style></defs><title>Asset 1</title><g id="Layer_2" data-name="Layer 2"><g id="Capa_1" data-name="Capa 1"><path class="cls-1" d="M437,331a255,255,0,0,0-97.28-61A148,148,0,0,0,404,148C404,66.39,337.61,0,256,0S108,66.39,108,148a148,148,0,0,0,64.26,122A256.4,256.4,0,0,0,0,512H40c0-119.1,96.9-216,216-216s216,96.9,216,216h40A254.33,254.33,0,0,0,437,331ZM148,148A108,108,0,1,1,256,256,108.12,108.12,0,0,1,148,148Z"/></g></g></svg>