<?xml version="1.0" encoding="UTF-8"?>
<svg width="24px" height="21px" viewBox="0 0 24 21" version="1.1" xmlns="http://www.w3.org/2000/svg" xmlns:xlink="http://www.w3.org/1999/xlink">
    <!-- Generator: Sketch 55 (78076) - https://sketchapp.com -->
    <title>send</title>
    <desc>Created with Sketch.</desc>
    <defs>
        <polygon id="path-1" points="0 0 24 0 24 21 0 21"></polygon>
    </defs>
    <g id="Page-1" stroke="none" stroke-width="1" fill="none" fill-rule="evenodd">
        <g id="Conversation" transform="translate(-313.000000, -727.000000)">
            <g id="chat-4" transform="translate(16.000000, 702.000000)">
                <g id="send" transform="translate(297.000000, 25.000000)">
                    <mask id="mask-2" fill="white">
                        <use xlink:href="#path-1"></use>
                    </mask>
                    <g id="Clip-2"></g>
                    <path d="M7.74961122,11.0393502 L18.5573956,4.34965569 C18.7515953,4.22996356 18.951595,4.49376863 18.7847953,4.64923775 L9.86480817,12.9817595 C9.55160862,13.2750102 9.34920891,13.6675522 9.29180899,14.0935597 L8.98830943,16.3562534 C8.94800949,16.6585489 8.5258101,16.6884971 8.44261022,16.3963518 L7.27421191,12.2696366 C7.1402121,11.7990083 7.33521182,11.2965225 7.74961122,11.0393502 M0.423821815,10.0693515 L5.95391382,12.1436131 L8.09451073,19.0614362 C8.23121053,19.5046287 8.77070975,19.6683386 9.12850923,19.3743844 L12.2109048,16.848991 C12.5340043,16.584382 12.9941036,16.5711164 13.3320032,16.8175354 L18.8917951,20.8743046 C19.2745946,21.1538878 19.8167938,20.9431452 19.9128936,20.4783458 L23.9858877,0.789342497 C24.0905876,0.281932292 23.5940883,-0.142165759 23.112889,0.0451609632 L0.417621824,8.84368808 C-0.142577366,9.06086246 -0.137877373,9.857805 0.423821815,10.0693515" id="Fill-1" fill="#9B9B9B" mask="url(#mask-2)"></path>
                </g>
            </g>
        </g>
    </g>
</svg>