<svg xmlns="http://www.w3.org/2000/svg" viewBox="0 0 477.85 477.87"><defs><style>.cls-1{fill:#585e6f;}</style></defs><title>Asset 1</title><g id="Layer_2" data-name="Layer 2"><g id="Capa_1" data-name="Capa 1"><path class="cls-1" d="M426.65,0H204.78a51.2,51.2,0,0,0-51.2,51.2V153.6a17.07,17.07,0,1,0,34.13,0V51.2a17.07,17.07,0,0,1,17.07-17.07H426.65A17.07,17.07,0,0,1,443.71,51.2V426.67a17.07,17.07,0,0,1-17.07,17.07H204.78a17.07,17.07,0,0,1-17.07-17.07V324.27a17.07,17.07,0,1,0-34.13,0v102.4a51.2,51.2,0,0,0,51.2,51.2H426.65a51.2,51.2,0,0,0,51.2-51.2V51.2A51.2,51.2,0,0,0,426.65,0Z"/><path class="cls-1" d="M1.29,232.41a17.07,17.07,0,0,0,0,13A16.9,16.9,0,0,0,5,251l85.33,85.33a17.07,17.07,0,0,0,24.55-23.71l-.42-.42L58.25,256H341.31a17.07,17.07,0,0,0,0-34.13H58.25l56.2-56.2a17.07,17.07,0,0,0-24.13-24.13L5,226.87A16.9,16.9,0,0,0,1.29,232.41Z"/></g></g></svg>