<?xml version="1.0" encoding="UTF-8"?>
<svg width="394px" height="375px" viewBox="0 0 394 375" version="1.1" xmlns="http://www.w3.org/2000/svg" xmlns:xlink="http://www.w3.org/1999/xlink">
    <!-- Generator: Sketch 55 (78076) - https://sketchapp.com -->
    <title>Group</title>
    <desc>Created with Sketch.</desc>
    <defs>
        <polygon id="path-1" points="2 0 65 0 65 59 2 59"></polygon>
        <polygon id="path-3" points="2 0 65 0 65 59 2 59"></polygon>
        <polygon id="path-5" points="2 0 65 0 65 59 2 59"></polygon>
        <polygon id="path-7" points="2 0 65 0 65 59 2 59"></polygon>
        <polygon id="path-9" points="2 0 65 0 65 59 2 59"></polygon>
        <polygon id="path-11" points="0 0 63 0 63 59 0 59"></polygon>
        <polygon id="path-13" points="2 0 65 0 65 59 2 59"></polygon>
        <polygon id="path-15" points="2 0 65 0 65 59 2 59"></polygon>
        <polygon id="path-17" points="2 0 65 0 65 59 2 59"></polygon>
        <polygon id="path-19" points="2 0 65 0 65 59 2 59"></polygon>
        <polygon id="path-21" points="0 0 63 0 63 59 0 59"></polygon>
        <polygon id="path-23" points="0 0 63 0 63 59 0 59"></polygon>
        <polygon id="path-25" points="2 0 65 0 65 59 2 59"></polygon>
        <polygon id="path-27" points="2 0 65 0 65 59 2 59"></polygon>
        <polygon id="path-29" points="2 0 65 0 65 59 2 59"></polygon>
        <polygon id="path-31" points="0 0 63 0 63 59 0 59"></polygon>
        <polygon id="path-33" points="0 0 63 0 63 59 0 59"></polygon>
        <polygon id="path-35" points="0 0 63 0 63 59 0 59"></polygon>
        <polygon id="path-37" points="2 0 65 0 65 59 2 59"></polygon>
        <polygon id="path-39" points="2 0 65 0 65 59 2 59"></polygon>
        <polygon id="path-41" points="2 0 65 0 65 59 2 59"></polygon>
        <polygon id="path-43" points="2 0 65 0 65 59 2 59"></polygon>
        <polygon id="path-45" points="2 0 65 0 65 59 2 59"></polygon>
        <polygon id="path-47" points="2 0 65 0 65 59 2 59"></polygon>
        <polygon id="path-49" points="0 0 63 0 63 59 0 59"></polygon>
    </defs>
    <g id="Page-1" stroke="none" stroke-width="1" fill="none" fill-rule="evenodd">
        <g id="Group" transform="translate(-2.000000, 0.000000)">
            <g id="star">
                <mask id="mask-2" fill="white">
                    <use xlink:href="#path-1"></use>
                </mask>
                <g id="Clip-2"></g>
                <path d="M64.9411995,22.4532904 C64.8101078,22.0529078 64.4577107,21.7605869 64.0334246,21.7010144 L43.6324531,18.7847328 L34.508188,0.617891498 C34.3221223,0.238289995 33.9302568,0 33.5017419,0 C33.0718175,0 32.6813615,0.238289995 32.4882479,0.617891498 L23.3639828,18.7902744 L2.96442082,21.7010144 C2.54013474,21.7605869 2.18773767,22.0529078 2.05523636,22.4532904 C1.92273506,22.853673 2.03268295,23.2983886 2.34138279,23.5907095 L17.1040011,37.7315582 L13.6180892,57.7063556 C13.5462002,58.116436 13.7167604,58.5389851 14.0649287,58.7883584 C14.4116875,59.0377316 14.8740324,59.069596 15.2532117,58.868712 L33.5017419,49.4424031 L51.7488625,58.868712 C51.908146,58.9559926 52.0899829,58.9989402 52.2718198,58.9989402 C52.5029923,58.9989402 52.7398031,58.9282845 52.9329167,58.7883584 C53.2796754,58.5389851 53.455874,58.116436 53.383985,57.7063556 L49.8980731,37.7370998 L64.6606914,23.5907095 C64.9693913,23.292847 65.0793392,22.853673 64.9411995,22.4532904" id="Fill-1" fill="#E85758" mask="url(#mask-2)"></path>
            </g>
            <g id="star-copy" transform="translate(0.000000, 79.000000)">
                <mask id="mask-4" fill="white">
                    <use xlink:href="#path-3"></use>
                </mask>
                <g id="Clip-2"></g>
                <path d="M64.9411995,22.4532904 C64.8101078,22.0529078 64.4577107,21.7605869 64.0334246,21.7010144 L43.6324531,18.7847328 L34.508188,0.617891498 C34.3221223,0.238289995 33.9302568,0 33.5017419,0 C33.0718175,0 32.6813615,0.238289995 32.4882479,0.617891498 L23.3639828,18.7902744 L2.96442082,21.7010144 C2.54013474,21.7605869 2.18773767,22.0529078 2.05523636,22.4532904 C1.92273506,22.853673 2.03268295,23.2983886 2.34138279,23.5907095 L17.1040011,37.7315582 L13.6180892,57.7063556 C13.5462002,58.116436 13.7167604,58.5389851 14.0649287,58.7883584 C14.4116875,59.0377316 14.8740324,59.069596 15.2532117,58.868712 L33.5017419,49.4424031 L51.7488625,58.868712 C51.908146,58.9559926 52.0899829,58.9989402 52.2718198,58.9989402 C52.5029923,58.9989402 52.7398031,58.9282845 52.9329167,58.7883584 C53.2796754,58.5389851 53.455874,58.116436 53.383985,57.7063556 L49.8980731,37.7370998 L64.6606914,23.5907095 C64.9693913,23.292847 65.0793392,22.853673 64.9411995,22.4532904" id="Fill-1" fill="#E85758" mask="url(#mask-4)"></path>
            </g>
            <g id="star-copy-2" transform="translate(0.000000, 158.000000)">
                <mask id="mask-6" fill="white">
                    <use xlink:href="#path-5"></use>
                </mask>
                <g id="Clip-2"></g>
                <path d="M64.9411995,22.4532904 C64.8101078,22.0529078 64.4577107,21.7605869 64.0334246,21.7010144 L43.6324531,18.7847328 L34.508188,0.617891498 C34.3221223,0.238289995 33.9302568,0 33.5017419,0 C33.0718175,0 32.6813615,0.238289995 32.4882479,0.617891498 L23.3639828,18.7902744 L2.96442082,21.7010144 C2.54013474,21.7605869 2.18773767,22.0529078 2.05523636,22.4532904 C1.92273506,22.853673 2.03268295,23.2983886 2.34138279,23.5907095 L17.1040011,37.7315582 L13.6180892,57.7063556 C13.5462002,58.116436 13.7167604,58.5389851 14.0649287,58.7883584 C14.4116875,59.0377316 14.8740324,59.069596 15.2532117,58.868712 L33.5017419,49.4424031 L51.7488625,58.868712 C51.908146,58.9559926 52.0899829,58.9989402 52.2718198,58.9989402 C52.5029923,58.9989402 52.7398031,58.9282845 52.9329167,58.7883584 C53.2796754,58.5389851 53.455874,58.116436 53.383985,57.7063556 L49.8980731,37.7370998 L64.6606914,23.5907095 C64.9693913,23.292847 65.0793392,22.853673 64.9411995,22.4532904" id="Fill-1" fill="#E85758" mask="url(#mask-6)"></path>
            </g>
            <g id="star-copy-3" transform="translate(0.000000, 237.000000)">
                <mask id="mask-8" fill="white">
                    <use xlink:href="#path-7"></use>
                </mask>
                <g id="Clip-2"></g>
                <path d="M64.9411995,22.4532904 C64.8101078,22.0529078 64.4577107,21.7605869 64.0334246,21.7010144 L43.6324531,18.7847328 L34.508188,0.617891498 C34.3221223,0.238289995 33.9302568,0 33.5017419,0 C33.0718175,0 32.6813615,0.238289995 32.4882479,0.617891498 L23.3639828,18.7902744 L2.96442082,21.7010144 C2.54013474,21.7605869 2.18773767,22.0529078 2.05523636,22.4532904 C1.92273506,22.853673 2.03268295,23.2983886 2.34138279,23.5907095 L17.1040011,37.7315582 L13.6180892,57.7063556 C13.5462002,58.116436 13.7167604,58.5389851 14.0649287,58.7883584 C14.4116875,59.0377316 14.8740324,59.069596 15.2532117,58.868712 L33.5017419,49.4424031 L51.7488625,58.868712 C51.908146,58.9559926 52.0899829,58.9989402 52.2718198,58.9989402 C52.5029923,58.9989402 52.7398031,58.9282845 52.9329167,58.7883584 C53.2796754,58.5389851 53.455874,58.116436 53.383985,57.7063556 L49.8980731,37.7370998 L64.6606914,23.5907095 C64.9693913,23.292847 65.0793392,22.853673 64.9411995,22.4532904" id="Fill-1" fill="#E85758" mask="url(#mask-8)"></path>
            </g>
            <g id="star-copy-4" transform="translate(0.000000, 316.000000)">
                <mask id="mask-10" fill="white">
                    <use xlink:href="#path-9"></use>
                </mask>
                <g id="Clip-2"></g>
                <path d="M64.9411995,22.4532904 C64.8101078,22.0529078 64.4577107,21.7605869 64.0334246,21.7010144 L43.6324531,18.7847328 L34.508188,0.617891498 C34.3221223,0.238289995 33.9302568,0 33.5017419,0 C33.0718175,0 32.6813615,0.238289995 32.4882479,0.617891498 L23.3639828,18.7902744 L2.96442082,21.7010144 C2.54013474,21.7605869 2.18773767,22.0529078 2.05523636,22.4532904 C1.92273506,22.853673 2.03268295,23.2983886 2.34138279,23.5907095 L17.1040011,37.7315582 L13.6180892,57.7063556 C13.5462002,58.116436 13.7167604,58.5389851 14.0649287,58.7883584 C14.4116875,59.0377316 14.8740324,59.069596 15.2532117,58.868712 L33.5017419,49.4424031 L51.7488625,58.868712 C51.908146,58.9559926 52.0899829,58.9989402 52.2718198,58.9989402 C52.5029923,58.9989402 52.7398031,58.9282845 52.9329167,58.7883584 C53.2796754,58.5389851 53.455874,58.116436 53.383985,57.7063556 L49.8980731,37.7370998 L64.6606914,23.5907095 C64.9693913,23.292847 65.0793392,22.853673 64.9411995,22.4532904" id="Fill-1" fill="#E85758" mask="url(#mask-10)"></path>
            </g>
            <g id="star-2" transform="translate(88.000000, 0.000000)">
                <mask id="mask-12" fill="white">
                    <use xlink:href="#path-11"></use>
                </mask>
                <g id="Clip-2"></g>
                <path d="M62.9411995,22.4532904 C62.8101078,22.0529078 62.4577107,21.7605869 62.0334246,21.7010144 L41.6324531,18.7847328 L32.508188,0.617891498 C32.3221223,0.238289995 31.9302568,0 31.5017419,0 C31.0718175,0 30.6813615,0.238289995 30.4882479,0.617891498 L21.3639828,18.7902744 L0.964420822,21.7010144 C0.540134742,21.7605869 0.187737665,22.0529078 0.0552363642,22.4532904 C-0.0772649367,22.853673 0.0326829513,23.2983886 0.341382791,23.5907095 L15.1040011,37.7315582 L11.6180892,57.7063556 C11.5462002,58.116436 11.7167604,58.5389851 12.0649287,58.7883584 C12.4116875,59.0377316 12.8740324,59.069596 13.2532117,58.868712 L31.5017419,49.4424031 L49.7488625,58.868712 C49.908146,58.9559926 50.0899829,58.9989402 50.2718198,58.9989402 C50.5029923,58.9989402 50.7398031,58.9282845 50.9329167,58.7883584 C51.2796754,58.5389851 51.455874,58.116436 51.383985,57.7063556 L47.8980731,37.7370998 L62.6606914,23.5907095 C62.9693913,23.292847 63.0793392,22.853673 62.9411995,22.4532904" id="Fill-1" fill="#9B9B9B" mask="url(#mask-12)"></path>
            </g>
            <g id="star-2-copy" transform="translate(86.000000, 79.000000)">
                <mask id="mask-14" fill="white">
                    <use xlink:href="#path-13"></use>
                </mask>
                <g id="Clip-2"></g>
                <path d="M64.9411995,22.4532904 C64.8101078,22.0529078 64.4577107,21.7605869 64.0334246,21.7010144 L43.6324531,18.7847328 L34.508188,0.617891498 C34.3221223,0.238289995 33.9302568,0 33.5017419,0 C33.0718175,0 32.6813615,0.238289995 32.4882479,0.617891498 L23.3639828,18.7902744 L2.96442082,21.7010144 C2.54013474,21.7605869 2.18773767,22.0529078 2.05523636,22.4532904 C1.92273506,22.853673 2.03268295,23.2983886 2.34138279,23.5907095 L17.1040011,37.7315582 L13.6180892,57.7063556 C13.5462002,58.116436 13.7167604,58.5389851 14.0649287,58.7883584 C14.4116875,59.0377316 14.8740324,59.069596 15.2532117,58.868712 L33.5017419,49.4424031 L51.7488625,58.868712 C51.908146,58.9559926 52.0899829,58.9989402 52.2718198,58.9989402 C52.5029923,58.9989402 52.7398031,58.9282845 52.9329167,58.7883584 C53.2796754,58.5389851 53.455874,58.116436 53.383985,57.7063556 L49.8980731,37.7370998 L64.6606914,23.5907095 C64.9693913,23.292847 65.0793392,22.853673 64.9411995,22.4532904" id="Fill-1" fill="#E85758" mask="url(#mask-14)"></path>
            </g>
            <g id="star-2-copy-2" transform="translate(86.000000, 158.000000)">
                <mask id="mask-16" fill="white">
                    <use xlink:href="#path-15"></use>
                </mask>
                <g id="Clip-2"></g>
                <path d="M64.9411995,22.4532904 C64.8101078,22.0529078 64.4577107,21.7605869 64.0334246,21.7010144 L43.6324531,18.7847328 L34.508188,0.617891498 C34.3221223,0.238289995 33.9302568,0 33.5017419,0 C33.0718175,0 32.6813615,0.238289995 32.4882479,0.617891498 L23.3639828,18.7902744 L2.96442082,21.7010144 C2.54013474,21.7605869 2.18773767,22.0529078 2.05523636,22.4532904 C1.92273506,22.853673 2.03268295,23.2983886 2.34138279,23.5907095 L17.1040011,37.7315582 L13.6180892,57.7063556 C13.5462002,58.116436 13.7167604,58.5389851 14.0649287,58.7883584 C14.4116875,59.0377316 14.8740324,59.069596 15.2532117,58.868712 L33.5017419,49.4424031 L51.7488625,58.868712 C51.908146,58.9559926 52.0899829,58.9989402 52.2718198,58.9989402 C52.5029923,58.9989402 52.7398031,58.9282845 52.9329167,58.7883584 C53.2796754,58.5389851 53.455874,58.116436 53.383985,57.7063556 L49.8980731,37.7370998 L64.6606914,23.5907095 C64.9693913,23.292847 65.0793392,22.853673 64.9411995,22.4532904" id="Fill-1" fill="#E85758" mask="url(#mask-16)"></path>
            </g>
            <g id="star-2-copy-3" transform="translate(86.000000, 237.000000)">
                <mask id="mask-18" fill="white">
                    <use xlink:href="#path-17"></use>
                </mask>
                <g id="Clip-2"></g>
                <path d="M64.9411995,22.4532904 C64.8101078,22.0529078 64.4577107,21.7605869 64.0334246,21.7010144 L43.6324531,18.7847328 L34.508188,0.617891498 C34.3221223,0.238289995 33.9302568,0 33.5017419,0 C33.0718175,0 32.6813615,0.238289995 32.4882479,0.617891498 L23.3639828,18.7902744 L2.96442082,21.7010144 C2.54013474,21.7605869 2.18773767,22.0529078 2.05523636,22.4532904 C1.92273506,22.853673 2.03268295,23.2983886 2.34138279,23.5907095 L17.1040011,37.7315582 L13.6180892,57.7063556 C13.5462002,58.116436 13.7167604,58.5389851 14.0649287,58.7883584 C14.4116875,59.0377316 14.8740324,59.069596 15.2532117,58.868712 L33.5017419,49.4424031 L51.7488625,58.868712 C51.908146,58.9559926 52.0899829,58.9989402 52.2718198,58.9989402 C52.5029923,58.9989402 52.7398031,58.9282845 52.9329167,58.7883584 C53.2796754,58.5389851 53.455874,58.116436 53.383985,57.7063556 L49.8980731,37.7370998 L64.6606914,23.5907095 C64.9693913,23.292847 65.0793392,22.853673 64.9411995,22.4532904" id="Fill-1" fill="#E85758" mask="url(#mask-18)"></path>
            </g>
            <g id="star-2-copy-4" transform="translate(86.000000, 316.000000)">
                <mask id="mask-20" fill="white">
                    <use xlink:href="#path-19"></use>
                </mask>
                <g id="Clip-2"></g>
                <path d="M64.9411995,22.4532904 C64.8101078,22.0529078 64.4577107,21.7605869 64.0334246,21.7010144 L43.6324531,18.7847328 L34.508188,0.617891498 C34.3221223,0.238289995 33.9302568,0 33.5017419,0 C33.0718175,0 32.6813615,0.238289995 32.4882479,0.617891498 L23.3639828,18.7902744 L2.96442082,21.7010144 C2.54013474,21.7605869 2.18773767,22.0529078 2.05523636,22.4532904 C1.92273506,22.853673 2.03268295,23.2983886 2.34138279,23.5907095 L17.1040011,37.7315582 L13.6180892,57.7063556 C13.5462002,58.116436 13.7167604,58.5389851 14.0649287,58.7883584 C14.4116875,59.0377316 14.8740324,59.069596 15.2532117,58.868712 L33.5017419,49.4424031 L51.7488625,58.868712 C51.908146,58.9559926 52.0899829,58.9989402 52.2718198,58.9989402 C52.5029923,58.9989402 52.7398031,58.9282845 52.9329167,58.7883584 C53.2796754,58.5389851 53.455874,58.116436 53.383985,57.7063556 L49.8980731,37.7370998 L64.6606914,23.5907095 C64.9693913,23.292847 65.0793392,22.853673 64.9411995,22.4532904" id="Fill-1" fill="#E85758" mask="url(#mask-20)"></path>
            </g>
            <g id="star-3" transform="translate(170.000000, 0.000000)">
                <mask id="mask-22" fill="white">
                    <use xlink:href="#path-21"></use>
                </mask>
                <g id="Clip-2"></g>
                <path d="M62.9411995,22.4532904 C62.8101078,22.0529078 62.4577107,21.7605869 62.0334246,21.7010144 L41.6324531,18.7847328 L32.508188,0.617891498 C32.3221223,0.238289995 31.9302568,0 31.5017419,0 C31.0718175,0 30.6813615,0.238289995 30.4882479,0.617891498 L21.3639828,18.7902744 L0.964420822,21.7010144 C0.540134742,21.7605869 0.187737665,22.0529078 0.0552363642,22.4532904 C-0.0772649367,22.853673 0.0326829513,23.2983886 0.341382791,23.5907095 L15.1040011,37.7315582 L11.6180892,57.7063556 C11.5462002,58.116436 11.7167604,58.5389851 12.0649287,58.7883584 C12.4116875,59.0377316 12.8740324,59.069596 13.2532117,58.868712 L31.5017419,49.4424031 L49.7488625,58.868712 C49.908146,58.9559926 50.0899829,58.9989402 50.2718198,58.9989402 C50.5029923,58.9989402 50.7398031,58.9282845 50.9329167,58.7883584 C51.2796754,58.5389851 51.455874,58.116436 51.383985,57.7063556 L47.8980731,37.7370998 L62.6606914,23.5907095 C62.9693913,23.292847 63.0793392,22.853673 62.9411995,22.4532904" id="Fill-1" fill="#9B9B9B" mask="url(#mask-22)"></path>
            </g>
            <g id="star-3-copy" transform="translate(170.000000, 79.000000)">
                <mask id="mask-24" fill="white">
                    <use xlink:href="#path-23"></use>
                </mask>
                <g id="Clip-2"></g>
                <path d="M62.9411995,22.4532904 C62.8101078,22.0529078 62.4577107,21.7605869 62.0334246,21.7010144 L41.6324531,18.7847328 L32.508188,0.617891498 C32.3221223,0.238289995 31.9302568,0 31.5017419,0 C31.0718175,0 30.6813615,0.238289995 30.4882479,0.617891498 L21.3639828,18.7902744 L0.964420822,21.7010144 C0.540134742,21.7605869 0.187737665,22.0529078 0.0552363642,22.4532904 C-0.0772649367,22.853673 0.0326829513,23.2983886 0.341382791,23.5907095 L15.1040011,37.7315582 L11.6180892,57.7063556 C11.5462002,58.116436 11.7167604,58.5389851 12.0649287,58.7883584 C12.4116875,59.0377316 12.8740324,59.069596 13.2532117,58.868712 L31.5017419,49.4424031 L49.7488625,58.868712 C49.908146,58.9559926 50.0899829,58.9989402 50.2718198,58.9989402 C50.5029923,58.9989402 50.7398031,58.9282845 50.9329167,58.7883584 C51.2796754,58.5389851 51.455874,58.116436 51.383985,57.7063556 L47.8980731,37.7370998 L62.6606914,23.5907095 C62.9693913,23.292847 63.0793392,22.853673 62.9411995,22.4532904" id="Fill-1" fill="#9B9B9B" mask="url(#mask-24)"></path>
            </g>
            <g id="star-3-copy-2" transform="translate(168.000000, 158.000000)">
                <mask id="mask-26" fill="white">
                    <use xlink:href="#path-25"></use>
                </mask>
                <g id="Clip-2"></g>
                <path d="M64.9411995,22.4532904 C64.8101078,22.0529078 64.4577107,21.7605869 64.0334246,21.7010144 L43.6324531,18.7847328 L34.508188,0.617891498 C34.3221223,0.238289995 33.9302568,0 33.5017419,0 C33.0718175,0 32.6813615,0.238289995 32.4882479,0.617891498 L23.3639828,18.7902744 L2.96442082,21.7010144 C2.54013474,21.7605869 2.18773767,22.0529078 2.05523636,22.4532904 C1.92273506,22.853673 2.03268295,23.2983886 2.34138279,23.5907095 L17.1040011,37.7315582 L13.6180892,57.7063556 C13.5462002,58.116436 13.7167604,58.5389851 14.0649287,58.7883584 C14.4116875,59.0377316 14.8740324,59.069596 15.2532117,58.868712 L33.5017419,49.4424031 L51.7488625,58.868712 C51.908146,58.9559926 52.0899829,58.9989402 52.2718198,58.9989402 C52.5029923,58.9989402 52.7398031,58.9282845 52.9329167,58.7883584 C53.2796754,58.5389851 53.455874,58.116436 53.383985,57.7063556 L49.8980731,37.7370998 L64.6606914,23.5907095 C64.9693913,23.292847 65.0793392,22.853673 64.9411995,22.4532904" id="Fill-1" fill="#E85758" mask="url(#mask-26)"></path>
            </g>
            <g id="star-3-copy-3" transform="translate(168.000000, 237.000000)">
                <mask id="mask-28" fill="white">
                    <use xlink:href="#path-27"></use>
                </mask>
                <g id="Clip-2"></g>
                <path d="M64.9411995,22.4532904 C64.8101078,22.0529078 64.4577107,21.7605869 64.0334246,21.7010144 L43.6324531,18.7847328 L34.508188,0.617891498 C34.3221223,0.238289995 33.9302568,0 33.5017419,0 C33.0718175,0 32.6813615,0.238289995 32.4882479,0.617891498 L23.3639828,18.7902744 L2.96442082,21.7010144 C2.54013474,21.7605869 2.18773767,22.0529078 2.05523636,22.4532904 C1.92273506,22.853673 2.03268295,23.2983886 2.34138279,23.5907095 L17.1040011,37.7315582 L13.6180892,57.7063556 C13.5462002,58.116436 13.7167604,58.5389851 14.0649287,58.7883584 C14.4116875,59.0377316 14.8740324,59.069596 15.2532117,58.868712 L33.5017419,49.4424031 L51.7488625,58.868712 C51.908146,58.9559926 52.0899829,58.9989402 52.2718198,58.9989402 C52.5029923,58.9989402 52.7398031,58.9282845 52.9329167,58.7883584 C53.2796754,58.5389851 53.455874,58.116436 53.383985,57.7063556 L49.8980731,37.7370998 L64.6606914,23.5907095 C64.9693913,23.292847 65.0793392,22.853673 64.9411995,22.4532904" id="Fill-1" fill="#E85758" mask="url(#mask-28)"></path>
            </g>
            <g id="star-3-copy-4" transform="translate(168.000000, 316.000000)">
                <mask id="mask-30" fill="white">
                    <use xlink:href="#path-29"></use>
                </mask>
                <g id="Clip-2"></g>
                <path d="M64.9411995,22.4532904 C64.8101078,22.0529078 64.4577107,21.7605869 64.0334246,21.7010144 L43.6324531,18.7847328 L34.508188,0.617891498 C34.3221223,0.238289995 33.9302568,0 33.5017419,0 C33.0718175,0 32.6813615,0.238289995 32.4882479,0.617891498 L23.3639828,18.7902744 L2.96442082,21.7010144 C2.54013474,21.7605869 2.18773767,22.0529078 2.05523636,22.4532904 C1.92273506,22.853673 2.03268295,23.2983886 2.34138279,23.5907095 L17.1040011,37.7315582 L13.6180892,57.7063556 C13.5462002,58.116436 13.7167604,58.5389851 14.0649287,58.7883584 C14.4116875,59.0377316 14.8740324,59.069596 15.2532117,58.868712 L33.5017419,49.4424031 L51.7488625,58.868712 C51.908146,58.9559926 52.0899829,58.9989402 52.2718198,58.9989402 C52.5029923,58.9989402 52.7398031,58.9282845 52.9329167,58.7883584 C53.2796754,58.5389851 53.455874,58.116436 53.383985,57.7063556 L49.8980731,37.7370998 L64.6606914,23.5907095 C64.9693913,23.292847 65.0793392,22.853673 64.9411995,22.4532904" id="Fill-1" fill="#E85758" mask="url(#mask-30)"></path>
            </g>
            <g id="star-4" transform="translate(252.000000, 0.000000)">
                <mask id="mask-32" fill="white">
                    <use xlink:href="#path-31"></use>
                </mask>
                <g id="Clip-2"></g>
                <path d="M62.9411995,22.4532904 C62.8101078,22.0529078 62.4577107,21.7605869 62.0334246,21.7010144 L41.6324531,18.7847328 L32.508188,0.617891498 C32.3221223,0.238289995 31.9302568,0 31.5017419,0 C31.0718175,0 30.6813615,0.238289995 30.4882479,0.617891498 L21.3639828,18.7902744 L0.964420822,21.7010144 C0.540134742,21.7605869 0.187737665,22.0529078 0.0552363642,22.4532904 C-0.0772649367,22.853673 0.0326829513,23.2983886 0.341382791,23.5907095 L15.1040011,37.7315582 L11.6180892,57.7063556 C11.5462002,58.116436 11.7167604,58.5389851 12.0649287,58.7883584 C12.4116875,59.0377316 12.8740324,59.069596 13.2532117,58.868712 L31.5017419,49.4424031 L49.7488625,58.868712 C49.908146,58.9559926 50.0899829,58.9989402 50.2718198,58.9989402 C50.5029923,58.9989402 50.7398031,58.9282845 50.9329167,58.7883584 C51.2796754,58.5389851 51.455874,58.116436 51.383985,57.7063556 L47.8980731,37.7370998 L62.6606914,23.5907095 C62.9693913,23.292847 63.0793392,22.853673 62.9411995,22.4532904" id="Fill-1" fill="#9B9B9B" mask="url(#mask-32)"></path>
            </g>
            <g id="star-4-copy" transform="translate(252.000000, 79.000000)">
                <mask id="mask-34" fill="white">
                    <use xlink:href="#path-33"></use>
                </mask>
                <g id="Clip-2"></g>
                <path d="M62.9411995,22.4532904 C62.8101078,22.0529078 62.4577107,21.7605869 62.0334246,21.7010144 L41.6324531,18.7847328 L32.508188,0.617891498 C32.3221223,0.238289995 31.9302568,0 31.5017419,0 C31.0718175,0 30.6813615,0.238289995 30.4882479,0.617891498 L21.3639828,18.7902744 L0.964420822,21.7010144 C0.540134742,21.7605869 0.187737665,22.0529078 0.0552363642,22.4532904 C-0.0772649367,22.853673 0.0326829513,23.2983886 0.341382791,23.5907095 L15.1040011,37.7315582 L11.6180892,57.7063556 C11.5462002,58.116436 11.7167604,58.5389851 12.0649287,58.7883584 C12.4116875,59.0377316 12.8740324,59.069596 13.2532117,58.868712 L31.5017419,49.4424031 L49.7488625,58.868712 C49.908146,58.9559926 50.0899829,58.9989402 50.2718198,58.9989402 C50.5029923,58.9989402 50.7398031,58.9282845 50.9329167,58.7883584 C51.2796754,58.5389851 51.455874,58.116436 51.383985,57.7063556 L47.8980731,37.7370998 L62.6606914,23.5907095 C62.9693913,23.292847 63.0793392,22.853673 62.9411995,22.4532904" id="Fill-1" fill="#9B9B9B" mask="url(#mask-34)"></path>
            </g>
            <g id="star-4-copy-2" transform="translate(252.000000, 158.000000)">
                <mask id="mask-36" fill="white">
                    <use xlink:href="#path-35"></use>
                </mask>
                <g id="Clip-2"></g>
                <path d="M62.9411995,22.4532904 C62.8101078,22.0529078 62.4577107,21.7605869 62.0334246,21.7010144 L41.6324531,18.7847328 L32.508188,0.617891498 C32.3221223,0.238289995 31.9302568,0 31.5017419,0 C31.0718175,0 30.6813615,0.238289995 30.4882479,0.617891498 L21.3639828,18.7902744 L0.964420822,21.7010144 C0.540134742,21.7605869 0.187737665,22.0529078 0.0552363642,22.4532904 C-0.0772649367,22.853673 0.0326829513,23.2983886 0.341382791,23.5907095 L15.1040011,37.7315582 L11.6180892,57.7063556 C11.5462002,58.116436 11.7167604,58.5389851 12.0649287,58.7883584 C12.4116875,59.0377316 12.8740324,59.069596 13.2532117,58.868712 L31.5017419,49.4424031 L49.7488625,58.868712 C49.908146,58.9559926 50.0899829,58.9989402 50.2718198,58.9989402 C50.5029923,58.9989402 50.7398031,58.9282845 50.9329167,58.7883584 C51.2796754,58.5389851 51.455874,58.116436 51.383985,57.7063556 L47.8980731,37.7370998 L62.6606914,23.5907095 C62.9693913,23.292847 63.0793392,22.853673 62.9411995,22.4532904" id="Fill-1" fill="#9B9B9B" mask="url(#mask-36)"></path>
            </g>
            <g id="star-4-copy-3" transform="translate(250.000000, 237.000000)">
                <mask id="mask-38" fill="white">
                    <use xlink:href="#path-37"></use>
                </mask>
                <g id="Clip-2"></g>
                <path d="M64.9411995,22.4532904 C64.8101078,22.0529078 64.4577107,21.7605869 64.0334246,21.7010144 L43.6324531,18.7847328 L34.508188,0.617891498 C34.3221223,0.238289995 33.9302568,0 33.5017419,0 C33.0718175,0 32.6813615,0.238289995 32.4882479,0.617891498 L23.3639828,18.7902744 L2.96442082,21.7010144 C2.54013474,21.7605869 2.18773767,22.0529078 2.05523636,22.4532904 C1.92273506,22.853673 2.03268295,23.2983886 2.34138279,23.5907095 L17.1040011,37.7315582 L13.6180892,57.7063556 C13.5462002,58.116436 13.7167604,58.5389851 14.0649287,58.7883584 C14.4116875,59.0377316 14.8740324,59.069596 15.2532117,58.868712 L33.5017419,49.4424031 L51.7488625,58.868712 C51.908146,58.9559926 52.0899829,58.9989402 52.2718198,58.9989402 C52.5029923,58.9989402 52.7398031,58.9282845 52.9329167,58.7883584 C53.2796754,58.5389851 53.455874,58.116436 53.383985,57.7063556 L49.8980731,37.7370998 L64.6606914,23.5907095 C64.9693913,23.292847 65.0793392,22.853673 64.9411995,22.4532904" id="Fill-1" fill="#E85758" mask="url(#mask-38)"></path>
            </g>
            <g id="star-4-copy-4" transform="translate(250.000000, 316.000000)">
                <mask id="mask-40" fill="white">
                    <use xlink:href="#path-39"></use>
                </mask>
                <g id="Clip-2"></g>
                <path d="M64.9411995,22.4532904 C64.8101078,22.0529078 64.4577107,21.7605869 64.0334246,21.7010144 L43.6324531,18.7847328 L34.508188,0.617891498 C34.3221223,0.238289995 33.9302568,0 33.5017419,0 C33.0718175,0 32.6813615,0.238289995 32.4882479,0.617891498 L23.3639828,18.7902744 L2.96442082,21.7010144 C2.54013474,21.7605869 2.18773767,22.0529078 2.05523636,22.4532904 C1.92273506,22.853673 2.03268295,23.2983886 2.34138279,23.5907095 L17.1040011,37.7315582 L13.6180892,57.7063556 C13.5462002,58.116436 13.7167604,58.5389851 14.0649287,58.7883584 C14.4116875,59.0377316 14.8740324,59.069596 15.2532117,58.868712 L33.5017419,49.4424031 L51.7488625,58.868712 C51.908146,58.9559926 52.0899829,58.9989402 52.2718198,58.9989402 C52.5029923,58.9989402 52.7398031,58.9282845 52.9329167,58.7883584 C53.2796754,58.5389851 53.455874,58.116436 53.383985,57.7063556 L49.8980731,37.7370998 L64.6606914,23.5907095 C64.9693913,23.292847 65.0793392,22.853673 64.9411995,22.4532904" id="Fill-1" fill="#E85758" mask="url(#mask-40)"></path>
            </g>
            <g id="star-5" transform="translate(331.000000, 0.000000)">
                <mask id="mask-42" fill="white">
                    <use xlink:href="#path-41"></use>
                </mask>
                <g id="Clip-2"></g>
                <path d="M64.9411995,22.4532904 C64.8101078,22.0529078 64.4577107,21.7605869 64.0334246,21.7010144 L43.6324531,18.7847328 L34.508188,0.617891498 C34.3221223,0.238289995 33.9302568,0 33.5017419,0 C33.0718175,0 32.6813615,0.238289995 32.4882479,0.617891498 L23.3639828,18.7902744 L2.96442082,21.7010144 C2.54013474,21.7605869 2.18773767,22.0529078 2.05523636,22.4532904 C1.92273506,22.853673 2.03268295,23.2983886 2.34138279,23.5907095 L17.1040011,37.7315582 L13.6180892,57.7063556 C13.5462002,58.116436 13.7167604,58.5389851 14.0649287,58.7883584 C14.4116875,59.0377316 14.8740324,59.069596 15.2532117,58.868712 L33.5017419,49.4424031 L51.7488625,58.868712 C51.908146,58.9559926 52.0899829,58.9989402 52.2718198,58.9989402 C52.5029923,58.9989402 52.7398031,58.9282845 52.9329167,58.7883584 C53.2796754,58.5389851 53.455874,58.116436 53.383985,57.7063556 L49.8980731,37.7370998 L64.6606914,23.5907095 C64.9693913,23.292847 65.0793392,22.853673 64.9411995,22.4532904" id="Fill-1" fill="#9B9B9B" mask="url(#mask-42)"></path>
            </g>
            <g id="star-5-copy" transform="translate(331.000000, 79.000000)">
                <mask id="mask-44" fill="white">
                    <use xlink:href="#path-43"></use>
                </mask>
                <g id="Clip-2"></g>
                <path d="M64.9411995,22.4532904 C64.8101078,22.0529078 64.4577107,21.7605869 64.0334246,21.7010144 L43.6324531,18.7847328 L34.508188,0.617891498 C34.3221223,0.238289995 33.9302568,0 33.5017419,0 C33.0718175,0 32.6813615,0.238289995 32.4882479,0.617891498 L23.3639828,18.7902744 L2.96442082,21.7010144 C2.54013474,21.7605869 2.18773767,22.0529078 2.05523636,22.4532904 C1.92273506,22.853673 2.03268295,23.2983886 2.34138279,23.5907095 L17.1040011,37.7315582 L13.6180892,57.7063556 C13.5462002,58.116436 13.7167604,58.5389851 14.0649287,58.7883584 C14.4116875,59.0377316 14.8740324,59.069596 15.2532117,58.868712 L33.5017419,49.4424031 L51.7488625,58.868712 C51.908146,58.9559926 52.0899829,58.9989402 52.2718198,58.9989402 C52.5029923,58.9989402 52.7398031,58.9282845 52.9329167,58.7883584 C53.2796754,58.5389851 53.455874,58.116436 53.383985,57.7063556 L49.8980731,37.7370998 L64.6606914,23.5907095 C64.9693913,23.292847 65.0793392,22.853673 64.9411995,22.4532904" id="Fill-1" fill="#9B9B9B" mask="url(#mask-44)"></path>
            </g>
            <g id="star-5-copy-2" transform="translate(331.000000, 158.000000)">
                <mask id="mask-46" fill="white">
                    <use xlink:href="#path-45"></use>
                </mask>
                <g id="Clip-2"></g>
                <path d="M64.9411995,22.4532904 C64.8101078,22.0529078 64.4577107,21.7605869 64.0334246,21.7010144 L43.6324531,18.7847328 L34.508188,0.617891498 C34.3221223,0.238289995 33.9302568,0 33.5017419,0 C33.0718175,0 32.6813615,0.238289995 32.4882479,0.617891498 L23.3639828,18.7902744 L2.96442082,21.7010144 C2.54013474,21.7605869 2.18773767,22.0529078 2.05523636,22.4532904 C1.92273506,22.853673 2.03268295,23.2983886 2.34138279,23.5907095 L17.1040011,37.7315582 L13.6180892,57.7063556 C13.5462002,58.116436 13.7167604,58.5389851 14.0649287,58.7883584 C14.4116875,59.0377316 14.8740324,59.069596 15.2532117,58.868712 L33.5017419,49.4424031 L51.7488625,58.868712 C51.908146,58.9559926 52.0899829,58.9989402 52.2718198,58.9989402 C52.5029923,58.9989402 52.7398031,58.9282845 52.9329167,58.7883584 C53.2796754,58.5389851 53.455874,58.116436 53.383985,57.7063556 L49.8980731,37.7370998 L64.6606914,23.5907095 C64.9693913,23.292847 65.0793392,22.853673 64.9411995,22.4532904" id="Fill-1" fill="#9B9B9B" mask="url(#mask-46)"></path>
            </g>
            <g id="star-5-copy-3" transform="translate(331.000000, 237.000000)">
                <mask id="mask-48" fill="white">
                    <use xlink:href="#path-47"></use>
                </mask>
                <g id="Clip-2"></g>
                <path d="M64.9411995,22.4532904 C64.8101078,22.0529078 64.4577107,21.7605869 64.0334246,21.7010144 L43.6324531,18.7847328 L34.508188,0.617891498 C34.3221223,0.238289995 33.9302568,0 33.5017419,0 C33.0718175,0 32.6813615,0.238289995 32.4882479,0.617891498 L23.3639828,18.7902744 L2.96442082,21.7010144 C2.54013474,21.7605869 2.18773767,22.0529078 2.05523636,22.4532904 C1.92273506,22.853673 2.03268295,23.2983886 2.34138279,23.5907095 L17.1040011,37.7315582 L13.6180892,57.7063556 C13.5462002,58.116436 13.7167604,58.5389851 14.0649287,58.7883584 C14.4116875,59.0377316 14.8740324,59.069596 15.2532117,58.868712 L33.5017419,49.4424031 L51.7488625,58.868712 C51.908146,58.9559926 52.0899829,58.9989402 52.2718198,58.9989402 C52.5029923,58.9989402 52.7398031,58.9282845 52.9329167,58.7883584 C53.2796754,58.5389851 53.455874,58.116436 53.383985,57.7063556 L49.8980731,37.7370998 L64.6606914,23.5907095 C64.9693913,23.292847 65.0793392,22.853673 64.9411995,22.4532904" id="Fill-1" fill="#9B9B9B" mask="url(#mask-48)"></path>
            </g>
            <g id="star-5-copy-4" transform="translate(333.000000, 316.000000)">
                <mask id="mask-50" fill="white">
                    <use xlink:href="#path-49"></use>
                </mask>
                <g id="Clip-2"></g>
                <path d="M62.9411995,22.4532904 C62.8101078,22.0529078 62.4577107,21.7605869 62.0334246,21.7010144 L41.6324531,18.7847328 L32.508188,0.617891498 C32.3221223,0.238289995 31.9302568,0 31.5017419,0 C31.0718175,0 30.6813615,0.238289995 30.4882479,0.617891498 L21.3639828,18.7902744 L0.964420822,21.7010144 C0.540134742,21.7605869 0.187737665,22.0529078 0.0552363642,22.4532904 C-0.0772649367,22.853673 0.0326829513,23.2983886 0.341382791,23.5907095 L15.1040011,37.7315582 L11.6180892,57.7063556 C11.5462002,58.116436 11.7167604,58.5389851 12.0649287,58.7883584 C12.4116875,59.0377316 12.8740324,59.069596 13.2532117,58.868712 L31.5017419,49.4424031 L49.7488625,58.868712 C49.908146,58.9559926 50.0899829,58.9989402 50.2718198,58.9989402 C50.5029923,58.9989402 50.7398031,58.9282845 50.9329167,58.7883584 C51.2796754,58.5389851 51.455874,58.116436 51.383985,57.7063556 L47.8980731,37.7370998 L62.6606914,23.5907095 C62.9693913,23.292847 63.0793392,22.853673 62.9411995,22.4532904" id="Fill-1" fill="#E85758" mask="url(#mask-50)"></path>
            </g>
        </g>
    </g>
</svg>